<?xml version="1.0"?><svg width="600" height="1100" xmlns="http://www.w3.org/2000/svg" xmlns:xlink="http://www.w3.org/1999/xlink">
 <defs>
  <linearGradient id="linearGradient2201">
   <stop stop-color="#525252" offset="0" id="stop2203"/>
   <stop stop-color="#d9d9d9" offset="1" id="stop2205"/>
  </linearGradient>
  <linearGradient id="linearGradient2188">
   <stop stop-color="#650000" stop-opacity="0" offset="0" id="stop2190"/>
   <stop stop-color="#7b0000" stop-opacity="0" offset="0.5" id="stop2194"/>
   <stop stop-color="#760000" stop-opacity="0" offset="0.75" id="stop2196"/>
   <stop stop-color="#770000" offset="1" id="stop2192"/>
  </linearGradient>
  <linearGradient id="linearGradient2168">
   <stop stop-color="#000000" offset="0" id="stop2170"/>
   <stop stop-color="#000000" stop-opacity="0" offset="1" id="stop2174"/>
  </linearGradient>
  <linearGradient id="linearGradient2077">
   <stop stop-color="#ffffff" offset="0" id="stop2079"/>
   <stop stop-color="#ffffff" stop-opacity="0" offset="1" id="stop2081"/>
  </linearGradient>
  <linearGradient id="linearGradient2065">
   <stop stop-color="#5f0000" stop-opacity="0" offset="0" id="stop2067"/>
   <stop stop-color="#ff0000" stop-opacity="0" offset="0.5" id="stop2073"/>
   <stop stop-color="#860000" offset="1" id="stop2069"/>
  </linearGradient>
  <linearGradient id="linearGradient2053">
   <stop stop-color="#ff6f34" offset="0" id="stop2055"/>
   <stop stop-color="#ff0016" offset="1" id="stop2057"/>
  </linearGradient>
  <radialGradient gradientTransform="matrix(0.414155, -0.0919687, 0.0919687, 0.414155, 88.0635, 73.647)" xlink:href="#linearGradient2077" r="94.285713" id="radialGradient2217" gradientUnits="userSpaceOnUse" fy="263.79074" fx="457.14285" cy="263.79074" cx="457.14285"/>
  <radialGradient gradientTransform="matrix(1.1833, -0.262767, 0.262767, 1.1833, -308.6, -51.1664)" xlink:href="#linearGradient2077" r="94.285713" id="radialGradient2219" gradientUnits="userSpaceOnUse" fy="263.79074" fx="457.14285" cy="263.79074" cx="457.14285"/>
  <radialGradient xlink:href="#linearGradient2077" r="175.43748" id="radialGradient2223" gradientUnits="userSpaceOnUse" gradientTransform="matrix(0.701614, -0.461801, 0.654552, 0.994459, -404.372, 218.178)" fy="516.86877" fx="480.13391" cy="516.86877" cx="480.13391"/>
  <radialGradient xlink:href="#linearGradient2077" r="175.43748" id="radialGradient2225" gradientUnits="userSpaceOnUse" gradientTransform="matrix(0.418145, -0.275222, 0.366703, 0.557131, -79.0955, 415.273)" fy="516.86877" fx="480.13391" cy="516.86877" cx="480.13391"/>
  <radialGradient xlink:href="#linearGradient2188" r="359.53452" id="radialGradient2232" gradientUnits="userSpaceOnUse" gradientTransform="matrix(0.968306, -0.215026, 0.296519, 1.33529, -211.6, -61.667)" fy="440.37405" fx="413.88809" cy="440.37405" cx="413.88809"/>
  <linearGradient y2="-0.048095" y1="1.249448" xlink:href="#linearGradient2168" x2="0.466069" x1="0.675141" id="linearGradient2235"/>
  <linearGradient y2="0.46705" y1="-0.310132" xlink:href="#linearGradient2065" x2="1.501348" x1="-1.571374" id="linearGradient2241"/>
  <linearGradient y2="1.057928" y1="0.005407" xlink:href="#linearGradient2077" x2="0.431814" x1="0.429632" id="linearGradient2246"/>
  <radialGradient xlink:href="#linearGradient2065" r="372.48581" id="radialGradient2249" gradientUnits="userSpaceOnUse" gradientTransform="matrix(0.968306, -0.215026, 0.296519, 1.33529, -211.6, -61.667)" fy="290.04428" fx="478.65665" cy="290.04428" cx="478.65665"/>
  <radialGradient xlink:href="#linearGradient2053" r="330.32794" id="radialGradient2252" gradientUnits="userSpaceOnUse" gradientTransform="matrix(0.968306, -0.215026, 0.296519, 1.33529, -211.6, -61.667)" fy="233.67064" fx="462.46451" cy="233.67064" cx="462.46451"/>
  <linearGradient y2="0.990345" y1="-0.025823" xlink:href="#linearGradient2053" x2="0.44983" x1="0.569566" id="linearGradient2122"/>
  <linearGradient y2="0.754363" y1="1.009609" xlink:href="#linearGradient2168" x2="0.433649" x1="0.398052" id="linearGradient2126"/>
  <linearGradient y2="0.624332" y1="-0.011376" xlink:href="#linearGradient2168" x2="0.618108" x1="0.288024" id="linearGradient2140"/>
  <linearGradient y2="0.436509" y1="0.378721" xlink:href="#linearGradient2168" x2="0.592219" x1="0.291261" id="linearGradient2144"/>
  <radialGradient xlink:href="#linearGradient2077" r="15.405808" id="radialGradient2155" gradientUnits="userSpaceOnUse" gradientTransform="matrix(1.46863, 0, 0, 0.425261, 72.6646, 179.829)" fy="1378.8025" fx="214.76448" cy="1378.8025" cx="214.76448"/>
  <radialGradient gradientTransform="matrix(0.468704, -0.171608, 0.343813, 0.939038, -50.6841, 103.734)" xlink:href="#linearGradient2077" r="8.571428" id="radialGradient2169" gradientUnits="userSpaceOnUse" fy="752.36218" fx="378.57144" cy="752.36218" cx="378.57144"/>
  <radialGradient xlink:href="#linearGradient2168" r="32.826073" id="radialGradient2179" gradientUnits="userSpaceOnUse" gradientTransform="matrix(1.33089, -0.205583, 0.102609, 0.471582, -91.3654, 302.372)" fy="1031.8398" fx="269.78928" cy="1031.8398" cx="269.78928"/>
  <linearGradient y2="0.957083" y1="0.047212" xlink:href="#linearGradient2201" x2="0.4919" x1="0.383029" spreadMethod="pad" id="linearGradient2199"/>
  <radialGradient xlink:href="#linearGradient2201" r="27.479855" id="radialGradient2242" gradientUnits="userSpaceOnUse" gradientTransform="matrix(1.01536, 0, 0, 0.984868, 0, -6)" fy="771.54883" fx="370.70612" cy="771.54883" cx="370.70612"/>
  <linearGradient y2="0.494505" y1="0.067431" xlink:href="#linearGradient2201" x2="0.691833" x1="0.433968" spreadMethod="reflect" id="linearGradient2256"/>
  <linearGradient y2="0.472096" y1="0.442051" xlink:href="#linearGradient2201" x2="0.360843" x1="0.793826" spreadMethod="reflect" id="linearGradient2264"/>
  <linearGradient y2="0.65171" y1="0.546853" xlink:href="#linearGradient2201" x2="0.926679" x1="0.600963" spreadMethod="reflect" id="linearGradient2317"/>
  <linearGradient y2="1.029418" y1="0.159727" xlink:href="#linearGradient2168" x2="0.268621" x1="0.087384" spreadMethod="pad" id="linearGradient2321"/>
  <linearGradient y2="0.399164" y1="0.060159" xlink:href="#linearGradient2168" x2="0.667907" x1="0.165827" spreadMethod="reflect" id="linearGradient2327"/>
  <radialGradient xlink:href="#linearGradient2168" r="14.64712" id="radialGradient2333" gradientUnits="userSpaceOnUse" gradientTransform="scale(1.58039, 0.632755)" fy="1161.4192" fx="247.70892" cy="1161.0876" cx="247.70894"/>
 </defs>
 <g>
  <title>Layer 1</title>
  <path fill="url(#linearGradient2199)" fill-rule="evenodd" stroke-width="1px" id="path2191" d="m373.756439,747.687073l29.294434,801.122375l11.111664,0l-34.345184,-803.47168l-6.060913,2.349304z"/>
  <path opacity="0.75" fill="url(#radialGradient2252)" fill-rule="evenodd" stroke-width="0.625" stroke-linecap="round" stroke-linejoin="round" stroke-miterlimit="4" stroke-dashoffset="0" id="path1291" d="m558.53772,282.827393c39.660156,178.598022 -67.947021,439.466064 -174.544464,466.06427c-103.808258,25.97876 -315.743332,-169.784058 -355.403486,-348.38208c-39.66015,-178.598038 46.860243,-349.907982 193.125883,-382.388262c146.26564,-32.48029 297.161972,86.108042 336.822067,264.706072z"/>
  <path fill="url(#radialGradient2249)" fill-rule="evenodd" stroke-width="0.625" stroke-linecap="round" stroke-linejoin="round" stroke-miterlimit="4" stroke-dashoffset="0" id="path2063" d="m558.53772,282.827393c39.660156,178.598022 -67.946991,439.466064 -174.544464,466.06427c-103.808258,25.97876 -315.743332,-169.784058 -355.403486,-348.38208c-39.66015,-178.598038 46.860243,-349.907982 193.125883,-382.388262c146.26564,-32.48029 297.161911,86.108042 336.822067,264.706072z"/>
  <path opacity="0.6" fill="url(#linearGradient2246)" fill-rule="evenodd" stroke-width="1px" id="path2075" d="m171.194351,67.387917c-12.157394,0.123787 -36.515594,19.763191 -45.869942,30.673256c-19.23391,22.432709 -30.837723,37.649582 -41.845963,61.973816c-16.9002,37.343307 4.574982,39.083755 32.847046,16.119797c21.599403,-17.544098 -12.857826,35.602905 -15.812103,47.41243c-4.933952,19.723129 -24.964172,31.749649 -34.405441,42.761093c-9.84803,11.48587 -7.246059,33.212982 -27.58828,47.100739c-22.197729,15.15451 18.2547,23.314758 29.74617,28.51535c18.36145,8.309723 -10.75956,46.532684 27.888008,20.147766c22.789574,-15.558533 16.769493,-31.54718 31.91996,-1.234772c4.996628,9.99704 47.587585,-37.133667 49.59021,-40.279602c2.33963,-3.675354 -3.854294,-56.895905 -4.639389,-60.431335c-0.01593,-0.071777 13.060562,-19.123932 28.823059,-15.180786c24.449722,6.116348 16.739227,28.76123 38.737122,3.104874c11.176468,-13.035248 25.825226,50.39769 26.333588,52.687088c7.290894,32.832428 48.788025,-4.866486 62.28949,3.72821c14.421021,9.180084 9.084229,39.311646 25.714233,49.897919c13.119202,8.351379 43.27771,-30.363281 47.42038,-36.871033c13.556458,-21.295898 0.689026,-23.510559 38.117737,0.315674c26.362671,16.78183 22.406219,-31.973297 58.261505,-1.230804c21.820435,18.708954 6.770203,-20.076416 7.132843,-33.778107c0.611938,-23.121552 -11.942383,-57.190735 -20.131866,-77.478226c-4.63446,-11.480835 44.37323,16.123657 36.567322,6.513443c-14.237854,-17.5289 -32.694366,-32.145035 -45.858002,-48.35144c-17.054993,-20.997253 -24.404633,-34.87793 -36.559357,-59.196556c-10.501404,-21.010742 -5.946503,-25.339661 -22.61731,-35.951897c-17.602844,-11.205544 -33.647583,17.927864 -44.934906,-4.655304c-7.851166,-15.708248 -37.868958,9.422371 -52.683105,-0.007957c-4.171692,-2.65559 -16.655823,-32.665701 -19.828125,-36.571281c-6.982178,-8.596109 -42.542328,3.59362 -54.233551,6.189819c-3.718948,0.82584 -7.437866,1.65168 -11.156815,2.47752c-12.796326,2.841602 -28.611053,3.426731 -42.457382,6.501492c-1.007172,0.22366 -12.545761,19.486061 -20.767136,25.098816z"/>
  <path fill="url(#radialGradient2217)" fill-rule="evenodd" stroke-width="0.625" stroke-linecap="round" stroke-linejoin="round" stroke-miterlimit="4" stroke-dashoffset="0" id="path2085" d="m340.700897,132.18309a39.048901,39.048901 0 1 1 -78.097809,17.342667a39.048901,39.048901 0 1 1 78.097809,-17.342667z"/>
  <path opacity="0.6" fill="url(#radialGradient2219)" fill-rule="evenodd" stroke-width="0.625" stroke-linecap="round" stroke-linejoin="round" stroke-miterlimit="4" stroke-dashoffset="0" id="path2095" d="m413.220947,116.079956a111.568283,111.568283 0 1 1 -223.136581,49.550354a111.568283,111.568283 0 1 1 223.136581,-49.550354z"/>
  <path opacity="0.4" fill="url(#linearGradient2241)" fill-rule="evenodd" stroke-width="0.625" stroke-linecap="round" stroke-linejoin="round" stroke-miterlimit="4" stroke-dashoffset="0" id="path2125" d="m221.721786,18.12854c-146.26564,32.480282 -232.799617,203.770416 -193.139477,382.368439c39.66013,178.598053 251.606838,374.371979 355.415096,348.393219c106.597473,-26.598145 214.21048,-287.481232 174.550323,-466.079285c-39.660156,-178.59803 -190.560303,-297.162663 -336.825943,-264.682373zm-5.244431,5.358061c5.199875,-1.60392 11.040726,-2.429682 17.649658,-2.254761c19.368164,0.512609 32.663483,26.514051 38.091003,26.657701c20.479095,0.542019 30.72049,-19.316862 45.575226,-18.923691c18.579895,0.491758 21.18869,8.720848 32.842194,16.139168c10.823303,6.889862 24.286865,20.227844 38.737976,29.427048c11.837219,7.535286 32.714844,24.001854 47.103638,27.601357c13.507996,3.379166 31.701477,11.00219 34.698395,24.498055c6.332428,28.516212 -14.448151,21.375099 -14.899414,38.42495c-0.620026,23.425476 41.675842,16.27684 48.039917,44.935608c6.57962,29.629456 -30.816345,41.325882 -22.018585,45.863907c0.177643,0.091644 72.198608,61.527298 30.994995,60.436783c-23.066803,-0.610504 -67.778351,-34.504028 -74.697662,-6.844604c-2.514435,10.051361 -25.863068,61.413116 -44.015656,39.064575c-38.872681,-47.858063 -17.132385,7.841125 -68.795074,6.473785c-17.014343,-0.450317 -14.750671,-19.046906 -14.254089,-37.809082c2.072113,-78.290543 -54.609283,-11.470917 -55.159088,-37.496643c-1.658783,-78.520844 6.577606,-10.144989 -17.646667,-39.968704c-14.593399,-17.966675 -25.614014,-36.774567 -52.063156,-23.554993c-40.782242,20.383438 -6.404953,29.476044 -4.9505,56.702866c1.352402,25.316559 -31.748825,21.715149 -17.675568,39.041412c4.72493,5.817108 30.882156,53.187683 22.316284,47.734863c-3.408585,-2.16983 -6.843796,-4.356567 -10.252365,-6.526398c-36.745499,-23.391327 -37.037491,43.628754 -65.061737,-3.09433c-21.786766,-36.3237 -21.001442,20.856934 -50.221687,37.497681c-11.175743,33.510345 -15.372303,9.771332 -19.19722,-7.453125c-3.455791,-15.562164 -0.494312,-28.606079 -4.328293,-45.871277c-6.254229,-28.164124 15.77116,-21.030457 28.810577,-41.51413c7.587204,-11.918732 36.257584,-30.445648 9.316681,-37.185211c-14.149788,-3.539719 -37.511326,6.5336 -19.844208,-10.222458c11.358391,-10.772644 59.758301,-50.388657 37.207344,-69.723984c-12.698463,-10.887711 -49.657532,-41.663361 -8.374657,-50.830788c36.848656,-8.182755 45.988701,-9.05098 46.798576,-39.650528c0.659485,-24.917034 38.079941,-10.89386 51.461411,-31.914913c8.280716,-13.008209 18.212097,-24.848339 33.811752,-29.660139z"/>
  <path opacity="0.53" fill="url(#radialGradient2223)" fill-rule="evenodd" stroke-width="0.625" stroke-linecap="round" stroke-linejoin="round" stroke-miterlimit="4" stroke-dashoffset="0" id="path2099" d="m401.731384,408.734558a137.228027,194.505798 0 1 1 -274.456047,180.646606a137.228027,194.505798 0 1 1 274.456047,-180.646606z"/>
  <path opacity="0.3" fill="url(#radialGradient2225)" fill-rule="evenodd" stroke-width="0.625" stroke-linecap="round" stroke-linejoin="round" stroke-miterlimit="4" stroke-dashoffset="0" id="path2109" d="m389.486145,510.857605a81.784554,108.968994 0 1 1 -163.569107,107.660706a81.784554,108.968994 0 1 1 163.569107,-107.660706z"/>
  <path opacity="0.1" fill="url(#linearGradient2235)" fill-rule="evenodd" stroke-width="1px" id="path2158" d="m223.164429,647.358032c-18.335464,-24.26178 -60.966919,-66.679321 -84.569992,-101.252197c-13.366669,-19.578918 -23.259338,-50.612671 1.322342,-49.962067c37.267609,0.986359 32.962967,59.583466 31.556198,-7.007477c-0.090302,-4.274292 28.978287,44.927002 54.782547,4.39093c20.490784,-32.189056 27.585526,49.667603 31.544952,67.497681c1.540161,6.935669 35.923065,12.725586 49.962097,1.322388c35.296478,-28.669556 6.932953,34.372498 6.566711,48.210205c-0.890961,33.662415 73.164124,-41.607422 76.703461,-46.006348c32.960724,-40.965515 50.845245,-10.706055 72.758942,-45.130371c23.006195,-36.140564 48.394775,-65.382477 66.192261,-93.340607c14.099792,-22.149445 -23.010345,-31.226868 10.08728,-47.76944c25.059875,-12.525177 21.800476,45.561615 16.207642,54.347412c-13.637817,21.423737 -38.608276,14.175079 -39.450867,46.011932c-0.527161,19.917145 -0.879578,33.316956 4.374023,56.97525c4.692627,21.131653 -20.48175,53.45697 -30.250702,68.803162c-13.827606,21.721802 -3.488037,30.228455 -31.561859,44.260071c-19.255829,9.624268 -21.792267,50.292725 -39.450867,46.011902c-13.721924,11.14563 -36.204865,27.079407 -46.023193,35.054321c-18.362946,14.915283 -39.258423,-16.116333 -68.368011,-9.652161c-21.973267,4.879456 -45.830261,-9.489197 -58.286301,-20.169067c-11.998016,-10.287109 -20.750427,-37.526672 -24.096664,-52.59552z"/>
  <path fill="url(#radialGradient2232)" fill-rule="evenodd" stroke-width="0.625" stroke-linecap="round" stroke-linejoin="round" stroke-miterlimit="4" stroke-dashoffset="0" id="path2180" d="m558.53772,282.827393c39.660156,178.598022 -67.946991,439.466064 -174.544464,466.06427c-103.808258,25.97876 -315.743332,-169.784058 -355.403486,-348.38208c-39.66015,-178.598038 46.860243,-349.907982 193.125883,-382.388262c146.26564,-32.48029 297.161911,86.108042 336.822067,264.706072z"/>
  <path opacity="0.3" fill="url(#radialGradient2179)" fill-rule="evenodd" stroke-width="0.625" stroke-linecap="round" stroke-linejoin="round" stroke-miterlimit="4" stroke-dashoffset="0" id="path2171" d="m417.259399,726.75647a43.687958,15.480184 0 1 1 -87.375946,13.496948a43.687958,15.480184 0 1 1 87.375946,-13.496948z"/>
  <path fill="url(#linearGradient2122)" fill-rule="evenodd" stroke-width="1px" id="path1354" d="m372.746307,735.235229c-5.935547,3.64917 -15.408722,17.308472 -18.18277,24.243591c-1.543304,3.858337 -9.091705,5.050964 -13.131989,7.071106c-7.948456,3.974243 -3.73941,11.111694 4.040619,11.111694c10.36261,0 20.274536,0.014282 30.304596,2.020264c7.564758,1.513 15.432739,1.010193 23.23349,1.010193c7.943817,0 8.978607,-5.276367 7.071075,-9.09137c-1.735809,-3.471619 -10.955658,-7.769226 -13.131989,-12.121887c-2.065643,-4.131226 -1.895325,-18.341492 -7.071075,-22.223328c-0.38092,-0.285706 -6.71759,-5.963867 -13.131958,-2.020264z"/>
  <path fill="url(#linearGradient2126)" fill-rule="evenodd" stroke-width="1px" id="path2124" d="m372.746307,735.235229c-5.935547,3.64917 -15.408722,17.308472 -18.18277,24.243591c-1.543304,3.858337 -9.091705,5.050964 -13.131989,7.071106c-7.948456,3.974243 -3.73941,11.111694 4.040619,11.111694c10.36261,0 20.274536,0.014282 30.304596,2.020264c7.564758,1.513 15.432739,1.010193 23.23349,1.010193c7.943817,0 8.978607,-5.276367 7.071075,-9.09137c-1.735809,-3.471619 -10.955658,-7.769226 -13.131989,-12.121887c-2.065643,-4.131226 -1.895325,-18.341492 -7.071075,-22.223328c-0.38092,-0.285706 -6.71759,-5.963867 -13.131958,-2.020264z"/>
  <path opacity="0.467593" fill="url(#linearGradient2140)" fill-rule="evenodd" stroke-width="1px" id="path2138" d="m372.746307,735.235229c-5.935547,3.64917 -15.408722,17.308472 -18.18277,24.243591c-1.543304,3.858337 -9.091705,5.050964 -13.131989,7.071106c-7.948456,3.974243 -3.73941,11.111694 4.040619,11.111694c10.36261,0 20.274536,0.014282 30.304596,2.020264c7.564758,1.513 15.432739,1.010193 23.23349,1.010193c7.943817,0 8.978607,-5.276367 7.071075,-9.09137c-1.735809,-3.471619 -10.955658,-7.769226 -13.131989,-12.121887c-2.065643,-4.131226 -1.895325,-18.341492 -7.071075,-22.223328c-0.38092,-0.285706 -6.71759,-5.963867 -13.131958,-2.020264z"/>
  <path opacity="0.509259" fill="url(#linearGradient2144)" fill-rule="evenodd" stroke-width="1px" id="path2142" d="m372.746307,735.235229c-5.935547,3.64917 -15.408722,17.308472 -18.18277,24.243591c-1.543304,3.858337 -9.091705,5.050964 -13.131989,7.071106c-7.948456,3.974243 -3.73941,11.111694 4.040619,11.111694c10.36261,0 20.274536,0.014282 30.304596,2.020264c7.564758,1.513 15.432739,1.010193 23.23349,1.010193c7.943817,0 8.978607,-5.276367 7.071075,-9.09137c-1.735809,-3.471619 -10.955658,-7.769226 -13.131989,-12.121887c-2.065643,-4.131226 -1.895325,-18.341492 -7.071075,-22.223328c-0.38092,-0.285706 -6.71759,-5.963867 -13.131958,-2.020264z"/>
  <path opacity="0.675926" fill="url(#radialGradient2155)" fill-rule="evenodd" stroke-width="1px" id="path2146" d="m358.604156,766.356018c3.382599,0.437988 11.265594,-0.306152 16.576202,-1.537842c4.494751,-1.042542 7.217102,-1.313171 9.945709,-3.844666c3.948242,-3.662903 3.842407,-0.52887 9.116943,1.89502c2.930267,3.128662 7.176178,2.082764 10.14682,8.101074c2.930267,2.718567 -11.804443,0 -15.948486,0c-4.452026,0 -8.299744,-0.768982 -12.432159,-0.768982c-2.850891,0 -8.665619,-1.048706 -10.774536,-1.537842c-3.28183,-0.761169 -1.585938,-1.370728 -6.630493,-2.306763z"/>
  <path opacity="0.467593" fill="url(#radialGradient2169)" fill-rule="evenodd" stroke-width="0.625" stroke-linecap="round" stroke-linejoin="round" stroke-miterlimit="4" stroke-dashoffset="0" id="path2161" d="m389.443207,743.793823a4.017464,8.048899 0 1 1 -8.034943,2.941895a4.017464,8.048899 0 1 1 8.034943,-2.941895z"/>
  <path fill="url(#radialGradient2242)" fill-rule="nonzero" stroke-width="1px" id="path2223" d="m384.098175,745.8302c-0.315796,0.082092 -0.627747,-0.178406 -0.94162,-0.267578c7.031158,1.463257 0.112488,-0.148071 1.18335,-1.5578c-0.288666,-0.209656 -0.100128,0.0979 -0.230164,0.225037l4.012909,-9.423218c1.895996,1.220398 3.960022,1.866089 5.079102,4.061768c4.662201,11.938721 -2.838959,20.796997 -15.457184,15.350647c-8.585388,-7.900879 -5.36676,-17.926941 6.353607,-18.753418l0,10.364563z"/>
  <path fill="url(#linearGradient2264)" fill-rule="nonzero" stroke-width="1px" id="path2248" d="m389.820068,848.98407c19.502777,32.6026 -40.166595,32.93634 -38.799042,67.422485c1.381714,34.842773 32.21756,19.787537 50.781799,50.330566l1.357758,12.088379c-27.175476,-37.964478 -52.843933,-27.652405 -53.919098,-61.720215c-1.075165,-34.06781 45.611877,-45.570251 41.369751,-61.819519l-0.791168,-6.301697z"/>
  <path fill="url(#linearGradient2317)" fill-rule="nonzero" stroke-width="1px" id="path2284" d="m395.353455,1000.713806c-9.286377,13.30188 -47.781158,27.058777 -47.63028,11.589966c0.359894,-36.89801 55.373047,-18.880859 56.593475,11.288025c0.593781,14.678101 -36.307526,13.991455 -42.145447,26.909912l-1.061127,-8.487061c4.898621,-11.005737 39.144989,-9.574463 37.447906,-17.729492c-5.807373,-27.906738 -35.5242,-27.015747 -46.193787,-18.352844c1.285004,15.130798 34.929993,0.801514 42.614166,-12.700562l0.375092,7.482056z"/>
  <path fill="url(#linearGradient2321)" fill-rule="nonzero" stroke-width="1px" id="path2319" d="m395.353455,1000.713806c-9.286377,13.30188 -47.781158,27.058777 -47.63028,11.589966l4.641022,-6.37146c1.285004,15.130798 34.929993,0.801514 42.614166,-12.700562l0.375092,7.482056z"/>
  <path fill="url(#linearGradient2327)" fill-rule="nonzero" stroke-width="1px" id="path2323" d="m384.098175,745.8302c-0.315796,0.082092 -0.627747,-0.178406 -0.94162,-0.267578c7.031158,1.463257 0.112488,-0.148071 1.18335,-1.5578c-0.288666,-0.209656 -0.100128,0.0979 -0.230164,0.225037l4.012909,-9.423218c1.895996,1.220398 3.960022,1.866089 5.079102,4.061768c4.662201,11.938721 -2.838959,20.796997 -15.457184,15.350647c-8.585388,-7.900879 -5.36676,-17.926941 6.353607,-18.753418l0,10.364563z"/>
  <path fill="url(#linearGradient2256)" fill-rule="nonzero" stroke-width="1px" id="path2246" d="m392.325165,736.549744c-9.750824,22.190857 -12.989716,1.442444 -21.292633,2.753296c-12.743256,-0.024841 -32.129395,6.308838 -38.989014,16.555481c-9.404297,14.047791 -13.050934,28.868408 -5.668945,47.749634c7.430328,19.004822 31.70929,25.711914 55.779602,39.273804l0.311066,4.008179c-18.273895,-14.305908 -51.052795,-14.918457 -61.21759,-36.508789c-10.302673,-21.883179 -9.614685,-39.626526 10.161957,-58.705078c10.473236,-9.743286 22.831238,-17.617065 37.493988,-17.936829l23.42157,2.810303z"/>
  <path opacity="0.638889" fill="url(#radialGradient2333)" fill-rule="nonzero" stroke-width="1px" id="path2329" d="m392.325165,736.549744c-9.750824,22.190857 -12.989716,1.442444 -21.292633,2.753296c-12.743256,-0.024841 -16.791687,-5.243835 -2.128937,-5.563599l23.42157,2.810303z"/>
 </g>
</svg>